<?xml version="1.0" encoding="UTF-8" standalone="no"?>
<!-- Created with Inkscape (http://www.inkscape.org/) -->

<svg
   xmlns:dc="http://purl.org/dc/elements/1.1/"
   xmlns:cc="http://creativecommons.org/ns#"
   xmlns:rdf="http://www.w3.org/1999/02/22-rdf-syntax-ns#"
   xmlns:svg="http://www.w3.org/2000/svg"
   xmlns="http://www.w3.org/2000/svg"
   xmlns:sodipodi="http://sodipodi.sourceforge.net/DTD/sodipodi-0.dtd"
   xmlns:inkscape="http://www.inkscape.org/namespaces/inkscape"
   width="744.09448819"
   height="1052.3622047"
   id="svg4001"
   version="1.1"
   inkscape:version="0.48.4 r9939"
   sodipodi:docname="csrdev-logo.svg">
  <defs
     id="defs4003" />
  <sodipodi:namedview
     id="base"
     pagecolor="#ffffff"
     bordercolor="#666666"
     borderopacity="1.0"
     inkscape:pageopacity="0.0"
     inkscape:pageshadow="2"
     inkscape:zoom="0.7"
     inkscape:cx="204.95269"
     inkscape:cy="638.06418"
     inkscape:document-units="px"
     inkscape:current-layer="layer1"
     showgrid="false"
     inkscape:window-width="1600"
     inkscape:window-height="823"
     inkscape:window-x="-9"
     inkscape:window-y="-9"
     inkscape:window-maximized="1" />
  <metadata
     id="metadata4006">
    <rdf:RDF>
      <cc:Work
         rdf:about="">
        <dc:format>image/svg+xml</dc:format>
        <dc:type
           rdf:resource="http://purl.org/dc/dcmitype/StillImage" />
        <dc:title></dc:title>
      </cc:Work>
    </rdf:RDF>
  </metadata>
  <g
     inkscape:label="Layer 1"
     inkscape:groupmode="layer"
     id="layer1">
    <g
       transform="matrix(17.095155,0,0,17.095155,841.64087,47.08102)"
       id="g4418">
      <path
         transform="matrix(1.1944444,0,0,1.273913,-52.827121,-8.7536752)"
         d="m 38.528362,23.756887 c 0,8.646792 -7.680094,15.656402 -17.15397,15.656402 -9.473877,0 -17.1539712,-7.00961 -17.1539712,-15.656402 0,-8.646791 7.6800942,-15.6564012 17.1539712,-15.6564012 9.473876,0 17.15397,7.0096102 17.15397,15.6564012 z"
         sodipodi:ry="15.656402"
         sodipodi:rx="17.153971"
         sodipodi:cy="23.756887"
         sodipodi:cx="21.374392"
         id="path2996-7"
         style="fill:#005185;fill-opacity:1"
         sodipodi:type="arc" />
      <path
         inkscape:connector-curvature="0"
         id="path3817-9"
         d="m -25.94293,39.909138 c -6.484878,-1.070695 -11.887112,-4.848695 -14.676072,-10.26357 -1.386378,-2.691707 -2.018071,-5.277889 -2.019059,-8.266124 -0.003,-9.184087 7.251629,-17.0578139 16.9988,-18.4493567 1.339978,-0.1913005 4.273381,-0.1924377 5.605591,-0.00218 4.528138,0.6467027 8.378225,2.5130596 11.515182,5.5820656 7.1149303,6.9608111 7.4350332,17.7902941 0.742314,25.1133551 -3.096627,3.388279 -7.320386,5.604651 -12.005261,6.29963 -1.460439,0.216648 -4.811113,0.209128 -6.161495,-0.01383 z"
         style="fill:#ffffff" />
      <path
         inkscape:connector-curvature="0"
         id="path3821-8-5"
         d="m -36.51175,13.94611 18.753646,-8.4408425 4.62885,3.3014587 -22.837926,6.4667748 z"
         style="fill:#bdd72e;fill-opacity:1;stroke:#000000;stroke-width:0;stroke-linecap:butt;stroke-linejoin:miter;stroke-miterlimit:3.73333335;stroke-opacity:1;stroke-dasharray:none;stroke-dashoffset:0" />
      <path
         inkscape:connector-curvature="0"
         id="path3823-8-4"
         d="m -35.899109,16.566856 24.403566,-5.17342 2.042139,3.675851 -26.207455,3.063209 z"
         style="fill:#bdd72e;fill-opacity:1;stroke:#000000;stroke-width:0;stroke-linecap:butt;stroke-linejoin:miter;stroke-miterlimit:3.73333335;stroke-opacity:1;stroke-dasharray:none" />
      <path
         inkscape:connector-curvature="0"
         id="path3821-4-4-3"
         d="m -36.290518,29.211102 18.753646,8.440843 4.62885,-3.301459 -22.837926,-6.466775 z"
         style="fill:#bdd72e;fill-opacity:1;stroke:#000000;stroke-width:0;stroke-linecap:butt;stroke-linejoin:miter;stroke-miterlimit:3.73333335;stroke-opacity:1;stroke-dasharray:none;stroke-dashoffset:0" />
      <path
         inkscape:connector-curvature="0"
         id="path3823-0-5-1"
         d="m -35.677877,26.590356 24.403566,5.17342 2.042139,-3.675851 -26.207455,-3.063209 z"
         style="fill:#bdd72e;fill-opacity:1;stroke:#000000;stroke-width:0;stroke-linecap:butt;stroke-linejoin:miter;stroke-miterlimit:3.73333335;stroke-opacity:1;stroke-dasharray:none" />
      <path
         inkscape:connector-curvature="0"
         id="path3937-7-2"
         d="m -35.558136,19.37074 0,1.599676 27.466775,-0.06807 -0.136143,-3.131281 z"
         style="fill:#bdd72e;fill-opacity:1;stroke:#000000;stroke-width:0;stroke-linecap:butt;stroke-linejoin:miter;stroke-miterlimit:3.73333335;stroke-opacity:1;stroke-dasharray:none" />
      <path
         inkscape:connector-curvature="0"
         id="path3937-5-1-3"
         d="m -35.473047,23.897483 0,-1.599676 27.466776,0.06807 -0.136143,3.131281 z"
         style="fill:#bdd72e;fill-opacity:1;stroke:#000000;stroke-width:0;stroke-linecap:butt;stroke-linejoin:miter;stroke-miterlimit:3.73333335;stroke-opacity:1;stroke-dasharray:none" />
    </g>
  </g>
</svg>
